<svg width="18" height="19" viewBox="0 0 18 19" fill="none" xmlns="http://www.w3.org/2000/svg">
<path d="M15.3554 13.25C15.2363 13.25 15.1172 13.258 14.9992 13.274V4.25C14.9992 3.65326 15.2362 3.08097 15.6582 2.65901C16.0801 2.23705 16.6524 2 17.2492 2C17.4481 2 17.6388 1.92098 17.7795 1.78033C17.9201 1.63968 17.9992 1.44891 17.9992 1.25C17.9992 1.05109 17.9201 0.860322 17.7795 0.71967C17.6388 0.579018 17.4481 0.5 17.2492 0.5C16.255 0.501191 15.3018 0.896661 14.5988 1.59966C13.8958 2.30267 13.5003 3.2558 13.4992 4.25V12.7092L11.4487 13.3932C11.4524 13.1384 11.4129 12.8848 11.3317 12.6432L10.1669 8.81825C9.98475 8.25052 9.58519 7.77802 9.05561 7.5041C8.52602 7.23017 7.90951 7.1771 7.34091 7.3565L2.31591 8.954C1.75436 9.13584 1.28625 9.53017 1.01168 10.0527C0.737108 10.5752 0.677879 11.1844 0.846657 11.75L2.07216 15.7797C2.15224 16.0045 2.26797 16.215 2.41491 16.403L0.512907 17.0367C0.32394 17.0996 0.167683 17.235 0.0785092 17.413C-0.0106643 17.5911 -0.0254492 17.7973 0.0374071 17.9863C0.100263 18.1752 0.235612 18.3315 0.413678 18.4206C0.591744 18.5098 0.79794 18.5246 0.986907 18.4617L13.1872 14.3953C12.8566 14.8795 12.6978 15.4605 12.7359 16.0456C12.774 16.6307 13.0069 17.1861 13.3974 17.6234C13.7879 18.0608 14.3136 18.3548 14.8906 18.4585C15.4677 18.5623 16.0629 18.4699 16.5813 18.1961C17.0998 17.9223 17.5116 17.4828 17.7512 16.9476C17.9908 16.4125 18.0443 15.8126 17.9032 15.2435C17.7622 14.6744 17.4347 14.1689 16.9729 13.8076C16.5111 13.4463 15.9417 13.25 15.3554 13.25V13.25ZM6.66591 10.7375L4.81716 11.3255C4.62759 11.3858 4.42185 11.3683 4.24519 11.2768C4.06853 11.1854 3.93543 11.0276 3.87516 10.838C3.81489 10.6484 3.83239 10.4427 3.92381 10.266C4.01524 10.0894 4.17309 9.95627 4.36266 9.896L6.21141 9.308C6.30527 9.27816 6.40409 9.26709 6.50223 9.27544C6.60037 9.28379 6.6959 9.31139 6.78337 9.35666C6.87084 9.40192 6.94854 9.46398 7.01204 9.53928C7.07553 9.61457 7.12356 9.70164 7.15341 9.7955C7.18325 9.88936 7.19431 9.98818 7.18597 10.0863C7.17762 10.1845 7.15002 10.28 7.10475 10.3675C7.05948 10.4549 6.99743 10.5326 6.92213 10.5961C6.84683 10.6596 6.75977 10.7077 6.66591 10.7375V10.7375Z" fill="white"/>
</svg>
