<svg width="18" height="17" viewBox="0 0 18 17" fill="none" xmlns="http://www.w3.org/2000/svg">
<path d="M17.9999 5.86001V14.5C17.9999 14.6989 17.9209 14.8897 17.7803 15.0303C17.6396 15.171 17.4488 15.25 17.2499 15.25C17.051 15.25 16.8603 15.171 16.7196 15.0303C16.5789 14.8897 16.4999 14.6989 16.4999 14.5V8.31401L10.9499 10.966C10.3647 11.3114 9.69669 11.4913 9.01718 11.4865C8.30457 11.4876 7.60491 11.2961 6.99218 10.9323L1.45718 8.29751C1.02209 8.06355 0.657541 7.71741 0.401349 7.29503C0.145158 6.87265 0.00666247 6.3894 0.000234424 5.89544C-0.00619362 5.40147 0.11968 4.91479 0.364793 4.48588C0.609907 4.05697 0.96533 3.70147 1.39418 3.45626C1.41443 3.44426 1.43618 3.43301 1.45718 3.42251L7.04993 0.754013C7.65373 0.407259 8.339 0.227609 9.03526 0.233541C9.73152 0.239472 10.4136 0.430772 11.0114 0.787763L16.5427 3.42251C16.9791 3.664 17.3439 4.01673 17.5998 4.44486C17.8558 4.87299 17.9938 5.36125 17.9999 5.86001ZM9.01643 12.985C8.05687 12.9871 7.11378 12.7357 6.28268 12.256L2.99993 10.6893V12.7143C3.00038 13.5149 3.25671 14.2944 3.7315 14.9391C4.2063 15.5838 4.87471 16.0598 5.63918 16.2978C6.73143 16.6114 7.86364 16.7637 8.99993 16.75C10.1364 16.7628 11.2686 16.6094 12.3607 16.2948C13.1252 16.0568 13.7936 15.5808 14.2684 14.9361C14.7432 14.2914 14.9995 13.5119 14.9999 12.7113V10.693L11.6557 12.2905C10.8529 12.7517 9.94224 12.9919 9.01643 12.9865V12.985Z" fill="#7C959D"/>
</svg>
