<svg width="16" height="19" viewBox="0 0 16 19" fill="none" xmlns="http://www.w3.org/2000/svg">
<path d="M9.5 5.75V0.845C10.1938 1.107 10.824 1.51348 11.3488 2.0375L13.9618 4.652C14.4864 5.17616 14.8932 5.80617 15.155 6.5H10.25C10.0511 6.5 9.86032 6.42098 9.71967 6.28033C9.57902 6.13968 9.5 5.94891 9.5 5.75ZM15.5 8.36375V14.75C15.4988 15.7442 15.1033 16.6973 14.4003 17.4003C13.6973 18.1033 12.7442 18.4988 11.75 18.5H4.25C3.2558 18.4988 2.30267 18.1033 1.59967 17.4003C0.896662 16.6973 0.501191 15.7442 0.5 14.75V4.25C0.501191 3.2558 0.896662 2.30267 1.59967 1.59966C2.30267 0.896661 3.2558 0.501191 4.25 0.5L7.63625 0.5C7.7585 0.5 7.87925 0.50975 8 0.518V5.75C8 6.34674 8.23705 6.91903 8.65901 7.34099C9.08097 7.76295 9.65326 8 10.25 8H15.482C15.4903 8.12075 15.5 8.2415 15.5 8.36375ZM9.5 14.75C9.5 14.5511 9.42098 14.3603 9.28033 14.2197C9.13968 14.079 8.94891 14 8.75 14H5C4.80109 14 4.61032 14.079 4.46967 14.2197C4.32902 14.3603 4.25 14.5511 4.25 14.75C4.25 14.9489 4.32902 15.1397 4.46967 15.2803C4.61032 15.421 4.80109 15.5 5 15.5H8.75C8.94891 15.5 9.13968 15.421 9.28033 15.2803C9.42098 15.1397 9.5 14.9489 9.5 14.75ZM11.75 11.75C11.75 11.5511 11.671 11.3603 11.5303 11.2197C11.3897 11.079 11.1989 11 11 11H5C4.80109 11 4.61032 11.079 4.46967 11.2197C4.32902 11.3603 4.25 11.5511 4.25 11.75C4.25 11.9489 4.32902 12.1397 4.46967 12.2803C4.61032 12.421 4.80109 12.5 5 12.5H11C11.1989 12.5 11.3897 12.421 11.5303 12.2803C11.671 12.1397 11.75 11.9489 11.75 11.75Z" fill="#7C959D"/>
</svg>
