<svg width="12" height="12" viewBox="0 0 12 12" fill="none" xmlns="http://www.w3.org/2000/svg">
<path d="M11.2498 5.41666C11.0951 5.41666 10.9468 5.47811 10.8374 5.58751C10.728 5.69691 10.6665 5.84528 10.6665 5.99999C10.6735 7.09259 10.2992 8.15341 9.60814 8.99975C8.9171 9.84609 7.95256 10.425 6.88065 10.6367C5.80873 10.8484 4.69654 10.6797 3.73563 10.1596C2.77472 9.63954 2.02524 8.80067 1.61628 7.78747C1.20731 6.77427 1.16447 5.65017 1.49512 4.60878C1.82577 3.56739 2.50921 2.6739 3.42775 2.08219C4.34628 1.49049 5.4424 1.23761 6.52732 1.3671C7.61224 1.4966 8.61805 2.00038 9.37151 2.79166H7.97151C7.8168 2.79166 7.66842 2.85311 7.55903 2.96251C7.44963 3.07191 7.38817 3.22028 7.38817 3.37499C7.38817 3.5297 7.44963 3.67807 7.55903 3.78747C7.66842 3.89686 7.8168 3.95832 7.97151 3.95832H10.614C10.7687 3.95832 10.9171 3.89686 11.0265 3.78747C11.1359 3.67807 11.1973 3.5297 11.1973 3.37499V0.74999C11.1973 0.59528 11.1359 0.446907 11.0265 0.337511C10.9171 0.228114 10.7687 0.166656 10.614 0.166656C10.4593 0.166656 10.3109 0.228114 10.2015 0.337511C10.0921 0.446907 10.0307 0.59528 10.0307 0.74999V1.78249C9.05923 0.853857 7.79694 0.289129 6.45718 0.183765C5.11742 0.0784013 3.78237 0.438866 2.67771 1.20423C1.57305 1.96959 0.766528 3.09289 0.394489 4.38427C0.0224502 5.67564 0.107712 7.05587 0.63586 8.29163C1.16401 9.5274 2.10265 10.5429 3.29311 11.1665C4.48358 11.7901 5.85284 11.9835 7.16945 11.714C8.48605 11.4446 9.66924 10.7288 10.519 9.68763C11.3688 8.6465 11.833 7.34389 11.8332 5.99999C11.8332 5.84528 11.7717 5.69691 11.6623 5.58751C11.5529 5.47811 11.4045 5.41666 11.2498 5.41666Z" fill="#7C959D"/>
</svg>
